<?xml version="1.0" encoding="UTF-8" standalone="no"?>
<!DOCTYPE svg PUBLIC "-//W3C//DTD SVG 1.1//EN"
 "http://www.w3.org/Graphics/SVG/1.1/DTD/svg11.dtd">
<!-- Generated by graphviz version 2.47.0 (20210316.0004)
 -->
<!-- Title: dependencies Pages: 1 -->
<svg width="945pt" height="295pt"
 viewBox="0.00 0.00 945.00 295.00" xmlns="http://www.w3.org/2000/svg" xmlns:xlink="http://www.w3.org/1999/xlink">
<g id="graph0" class="graph" transform="scale(1 1) rotate(0) translate(4 291)">
<title>dependencies</title>
<polygon fill="white" stroke="transparent" points="-4,4 -4,-291 941,-291 941,4 -4,4"/>
<text text-anchor="start" x="447.51" y="-42.4" font-family="Times-12" font-weight="bold" font-size="14.00">Legend</text>
<polygon fill="#ffffb3" stroke="transparent" points="234.5,-10 234.5,-30 254.5,-30 254.5,-10 234.5,-10"/>
<text text-anchor="start" x="258.13" y="-15.4" font-family="Times-12" font-size="14.00"> &#160;Declarations</text>
<polygon fill="#8dd3c7" stroke="transparent" points="347.5,-10 347.5,-30 367.5,-30 367.5,-10 347.5,-10"/>
<text text-anchor="start" x="371.23" y="-15.4" font-family="Times-12" font-size="14.00"> &#160;Module</text>
<polygon fill="#80b1d3" stroke="transparent" points="433.5,-10 433.5,-30 453.5,-30 453.5,-10 433.5,-10"/>
<text text-anchor="start" x="457.28" y="-15.4" font-family="Times-12" font-size="14.00"> &#160;Bootstrap</text>
<polygon fill="#fdb462" stroke="transparent" points="530.5,-10 530.5,-30 550.5,-30 550.5,-10 530.5,-10"/>
<text text-anchor="start" x="554.17" y="-15.4" font-family="Times-12" font-size="14.00"> &#160;Providers</text>
<polygon fill="#fb8072" stroke="transparent" points="626.5,-10 626.5,-30 646.5,-30 646.5,-10 626.5,-10"/>
<text text-anchor="start" x="650.23" y="-15.4" font-family="Times-12" font-size="14.00"> &#160;Exports</text>
<g id="clust1" class="cluster">
<title>cluster_AppModule</title>
<polygon fill="none" stroke="black" stroke-dasharray="1,5" points="8,-70 8,-271 375,-271 375,-70 8,-70"/>
</g>
<g id="clust3" class="cluster">
<title>cluster_AppModule_imports</title>
<polygon fill="none" stroke="black" points="154,-78 154,-195 367,-195 367,-78 154,-78"/>
</g>
<g id="clust6" class="cluster">
<title>cluster_AppModule_providers</title>
<polygon fill="none" stroke="black" points="16,-143 16,-195 146,-195 146,-143 16,-143"/>
</g>
<g id="clust7" class="cluster">
<title>cluster_AuthModule</title>
<polygon fill="none" stroke="black" stroke-dasharray="1,5" points="383,-135 383,-203 647,-203 647,-135 383,-135"/>
</g>
<g id="clust10" class="cluster">
<title>cluster_AuthModule_exports</title>
<polygon fill="none" stroke="black" points="533,-143 533,-195 639,-195 639,-143 533,-143"/>
</g>
<g id="clust12" class="cluster">
<title>cluster_AuthModule_providers</title>
<polygon fill="none" stroke="black" points="391,-143 391,-195 525,-195 525,-143 391,-143"/>
</g>
<g id="clust13" class="cluster">
<title>cluster_PostsModule</title>
<polygon fill="none" stroke="black" stroke-dasharray="1,5" points="383,-211 383,-279 651,-279 651,-211 383,-211"/>
</g>
<g id="clust16" class="cluster">
<title>cluster_PostsModule_exports</title>
<polygon fill="none" stroke="black" points="535,-219 535,-271 643,-271 643,-219 535,-219"/>
</g>
<g id="clust18" class="cluster">
<title>cluster_PostsModule_providers</title>
<polygon fill="none" stroke="black" points="391,-219 391,-271 527,-271 527,-219 391,-219"/>
</g>
<g id="clust19" class="cluster">
<title>cluster_UsersModule</title>
<polygon fill="none" stroke="black" stroke-dasharray="1,5" points="655,-135 655,-203 929,-203 929,-135 655,-135"/>
</g>
<g id="clust22" class="cluster">
<title>cluster_UsersModule_exports</title>
<polygon fill="none" stroke="black" points="811,-143 811,-195 921,-195 921,-143 811,-143"/>
</g>
<g id="clust24" class="cluster">
<title>cluster_UsersModule_providers</title>
<polygon fill="none" stroke="black" points="663,-143 663,-195 803,-195 803,-143 663,-143"/>
</g>
<!-- AuthModule -->
<g id="node1" class="node">
<title>AuthModule</title>
<polygon fill="#8dd3c7" stroke="black" points="249.55,-122 246.55,-126 225.55,-126 222.55,-122 162.45,-122 162.45,-86 249.55,-86 249.55,-122"/>
<text text-anchor="middle" x="206" y="-99.8" font-family="Times,serif" font-size="14.00">AuthModule</text>
</g>
<!-- AppModule -->
<g id="node4" class="node">
<title>AppModule</title>
<polygon fill="#8dd3c7" stroke="black" points="266.66,-263 263.66,-267 242.66,-267 239.66,-263 183.34,-263 183.34,-227 266.66,-227 266.66,-263"/>
<text text-anchor="middle" x="225" y="-240.8" font-family="Times,serif" font-size="14.00">AppModule</text>
</g>
<!-- AuthModule&#45;&gt;AppModule -->
<g id="edge1" class="edge">
<title>AuthModule&#45;&gt;AppModule</title>
<path fill="none" stroke="black" d="M236.45,-122.14C236.45,-122.14 236.45,-216.93 236.45,-216.93"/>
<polygon fill="black" stroke="black" points="232.95,-216.92 236.45,-226.93 239.95,-216.93 232.95,-216.92"/>
</g>
<!-- AuthService  -->
<g id="node6" class="node">
<title>AuthService </title>
<polygon fill="#fb8072" stroke="black" points="630.98,-187 541.02,-187 541.02,-151 630.98,-151 630.98,-187"/>
<text text-anchor="middle" x="586" y="-164.8" font-family="Times,serif" font-size="14.00">AuthService </text>
</g>
<!-- AuthModule&#45;&gt;AuthService  -->
<g id="edge5" class="edge">
<title>AuthModule&#45;&gt;AuthService </title>
<path fill="none" stroke="black" stroke-dasharray="5,2" d="M196.49,-122.21C196.49,-127.55 196.49,-132 196.49,-132 196.49,-132 586,-132 586,-132 586,-132 586,-140.93 586,-140.93"/>
<polygon fill="black" stroke="black" points="582.5,-140.93 586,-150.93 589.5,-140.93 582.5,-140.93"/>
</g>
<!-- PostsModule -->
<g id="node2" class="node">
<title>PostsModule</title>
<polygon fill="#8dd3c7" stroke="black" points="357.61,-187 354.61,-191 333.61,-191 330.61,-187 268.39,-187 268.39,-151 357.61,-151 357.61,-187"/>
<text text-anchor="middle" x="313" y="-164.8" font-family="Times,serif" font-size="14.00">PostsModule</text>
</g>
<!-- PostsModule&#45;&gt;AppModule -->
<g id="edge2" class="edge">
<title>PostsModule&#45;&gt;AppModule</title>
<path fill="none" stroke="black" d="M268.35,-175C263.99,-175 261.14,-175 261.14,-175 261.14,-175 261.14,-216.97 261.14,-216.97"/>
<polygon fill="black" stroke="black" points="257.64,-216.97 261.14,-226.97 264.64,-216.97 257.64,-216.97"/>
</g>
<!-- PostsService  -->
<g id="node8" class="node">
<title>PostsService </title>
<polygon fill="#fb8072" stroke="black" points="634.54,-263 543.46,-263 543.46,-227 634.54,-227 634.54,-263"/>
<text text-anchor="middle" x="589" y="-240.8" font-family="Times,serif" font-size="14.00">PostsService </text>
</g>
<!-- PostsModule&#45;&gt;PostsService  -->
<g id="edge8" class="edge">
<title>PostsModule&#45;&gt;PostsService </title>
<path fill="none" stroke="black" stroke-dasharray="5,2" d="M298.15,-187.11C298.15,-196.9 298.15,-207 298.15,-207 298.15,-207 587.11,-207 587.11,-207 587.11,-207 587.11,-216.89 587.11,-216.89"/>
<polygon fill="black" stroke="black" points="583.61,-216.89 587.11,-226.89 590.61,-216.89 583.61,-216.89"/>
</g>
<!-- UsersModule -->
<g id="node3" class="node">
<title>UsersModule</title>
<polygon fill="#8dd3c7" stroke="black" points="358.92,-122 355.92,-126 334.92,-126 331.92,-122 267.08,-122 267.08,-86 358.92,-86 358.92,-122"/>
<text text-anchor="middle" x="313" y="-99.8" font-family="Times,serif" font-size="14.00">UsersModule</text>
</g>
<!-- UsersModule&#45;&gt;PostsModule -->
<g id="edge7" class="edge">
<title>UsersModule&#45;&gt;PostsModule</title>
<path fill="none" stroke="black" d="M313,-122.11C313,-122.11 313,-140.99 313,-140.99"/>
<polygon fill="black" stroke="black" points="309.5,-140.99 313,-150.99 316.5,-140.99 309.5,-140.99"/>
</g>
<!-- UsersModule&#45;&gt;AppModule -->
<g id="edge3" class="edge">
<title>UsersModule&#45;&gt;AppModule</title>
<path fill="none" stroke="black" d="M267.1,-104C260.27,-104 255.46,-104 255.46,-104 255.46,-104 255.46,-216.86 255.46,-216.86"/>
<polygon fill="black" stroke="black" points="251.96,-216.86 255.46,-226.86 258.96,-216.86 251.96,-216.86"/>
</g>
<!-- UsersService  -->
<g id="node10" class="node">
<title>UsersService </title>
<polygon fill="#fb8072" stroke="black" points="912.85,-187 819.15,-187 819.15,-151 912.85,-151 912.85,-187"/>
<text text-anchor="middle" x="866" y="-164.8" font-family="Times,serif" font-size="14.00">UsersService </text>
</g>
<!-- UsersModule&#45;&gt;UsersService  -->
<g id="edge10" class="edge">
<title>UsersModule&#45;&gt;UsersService </title>
<path fill="none" stroke="black" stroke-dasharray="5,2" d="M358.72,-98C491.22,-98 866,-98 866,-98 866,-98 866,-140.72 866,-140.72"/>
<polygon fill="black" stroke="black" points="862.5,-140.72 866,-150.72 869.5,-140.72 862.5,-140.72"/>
</g>
<!-- AppService -->
<g id="node5" class="node">
<title>AppService</title>
<ellipse fill="#fdb462" stroke="black" cx="81" cy="-169" rx="56.74" ry="18"/>
<text text-anchor="middle" x="81" y="-164.8" font-family="Times,serif" font-size="14.00">AppService</text>
</g>
<!-- AppService&#45;&gt;AppModule -->
<g id="edge4" class="edge">
<title>AppService&#45;&gt;AppModule</title>
<path fill="none" stroke="black" d="M134.73,-163C174.98,-163 223.13,-163 223.13,-163 223.13,-163 223.13,-216.8 223.13,-216.8"/>
<polygon fill="black" stroke="black" points="219.63,-216.8 223.13,-226.8 226.63,-216.8 219.63,-216.8"/>
</g>
<!-- AuthService -->
<g id="node7" class="node">
<title>AuthService</title>
<ellipse fill="#fdb462" stroke="black" cx="458" cy="-169" rx="59.11" ry="18"/>
<text text-anchor="middle" x="458" y="-164.8" font-family="Times,serif" font-size="14.00">AuthService</text>
</g>
<!-- AuthService&#45;&gt;AuthModule -->
<g id="edge6" class="edge">
<title>AuthService&#45;&gt;AuthModule</title>
<path fill="none" stroke="black" d="M458,-150.84C458,-145.96 458,-142 458,-142 458,-142 209.81,-142 209.81,-142 209.81,-142 209.81,-132.11 209.81,-132.11"/>
<polygon fill="black" stroke="black" points="213.31,-132.11 209.81,-122.11 206.31,-132.11 213.31,-132.11"/>
</g>
<!-- PostsService -->
<g id="node9" class="node">
<title>PostsService</title>
<ellipse fill="#fdb462" stroke="black" cx="459" cy="-245" rx="60.27" ry="18"/>
<text text-anchor="middle" x="459" y="-240.8" font-family="Times,serif" font-size="14.00">PostsService</text>
</g>
<!-- PostsService&#45;&gt;PostsModule -->
<g id="edge9" class="edge">
<title>PostsService&#45;&gt;PostsModule</title>
<path fill="none" stroke="black" d="M398.42,-245C364.05,-245 327.85,-245 327.85,-245 327.85,-245 327.85,-197.01 327.85,-197.01"/>
<polygon fill="black" stroke="black" points="331.35,-197.01 327.85,-187.01 324.35,-197.01 331.35,-197.01"/>
</g>
<!-- UsersService -->
<g id="node11" class="node">
<title>UsersService</title>
<ellipse fill="#fdb462" stroke="black" cx="733" cy="-169" rx="61.95" ry="18"/>
<text text-anchor="middle" x="733" y="-164.8" font-family="Times,serif" font-size="14.00">UsersService</text>
</g>
<!-- UsersService&#45;&gt;UsersModule -->
<g id="edge11" class="edge">
<title>UsersService&#45;&gt;UsersModule</title>
<path fill="none" stroke="black" d="M733,-150.98C733,-133.63 733,-110 733,-110 733,-110 368.75,-110 368.75,-110"/>
<polygon fill="black" stroke="black" points="368.75,-106.5 358.75,-110 368.75,-113.5 368.75,-106.5"/>
</g>
</g>
</svg>
